HIERARCHY
ROOT Hips
{
	OFFSET 0.000000 0.000000 0.000000
	CHANNELS 6 Xposition Yposition Zposition Zrotation Yrotation Xrotation 
	JOINT LHipJoint
	{
		OFFSET 0.000000 0.000000 0.000000
		CHANNELS 3 Zrotation Yrotation Xrotation
		JOINT LeftUpLeg
		{
			OFFSET 1.363060 -1.794630 0.839290
			CHANNELS 3 Zrotation Yrotation Xrotation
			JOINT LeftLeg
			{
				OFFSET 2.448110 -6.726130 0.000000
				CHANNELS 3 Zrotation Yrotation Xrotation
				JOINT LeftFoot
				{
					OFFSET 2.562200 -7.039590 0.000000
					CHANNELS 3 Zrotation Yrotation Xrotation
					JOINT LeftToeBase
					{
						OFFSET 0.157640 -0.433110 2.322550
						CHANNELS 3 Zrotation Yrotation Xrotation
						End Site
						{
							OFFSET 0.000000 0.000000 0.000000
						}
					}
				}
			}
		}
	}
	JOINT RHipJoint
	{
		OFFSET 0.000000 0.000000 0.000000
		CHANNELS 3 Zrotation Yrotation Xrotation
		JOINT RightUpLeg
		{
			OFFSET -1.305520 -1.794630 0.839290
			CHANNELS 3 Zrotation Yrotation Xrotation
			JOINT RightLeg
			{
				OFFSET -2.542530 -6.985550 0.000000
				CHANNELS 3 Zrotation Yrotation Xrotation
				JOINT RightFoot
				{
					OFFSET -2.568260 -7.056230 0.000000
					CHANNELS 3 Zrotation Yrotation Xrotation
					JOINT RightToeBase
					{
						OFFSET -0.164730 -0.452590 2.363150
						CHANNELS 3 Zrotation Yrotation Xrotation
						End Site
						{
							OFFSET 0.000000 0.000000 0.000000
						}
					}
				}
			}
		}
	}
	JOINT LowerBack
	{
		OFFSET 0.000000 0.000000 0.000000
		CHANNELS 3 Zrotation Yrotation Xrotation
		JOINT Spine
		{
			OFFSET 0.028270 2.035590 -0.193380
			CHANNELS 3 Zrotation Yrotation Xrotation
			JOINT Spine1
			{
				OFFSET 0.056720 2.048850 -0.042750
				CHANNELS 3 Zrotation Yrotation Xrotation
				JOINT Neck
				{
					OFFSET 0.000000 0.000000 0.000000
					CHANNELS 3 Zrotation Yrotation Xrotation
					JOINT Neck1
					{
						OFFSET -0.054170 1.746240 0.172020
						CHANNELS 3 Zrotation Yrotation Xrotation
						JOINT Head
						{
							OFFSET 0.104070 1.761360 -0.123970
							CHANNELS 3 Zrotation Yrotation Xrotation
							End Site
							{
								OFFSET 0.000000 0.000000 0.000000
							}
						}
					}
				}
				JOINT LeftShoulder
				{
					OFFSET 0.000000 0.000000 0.000000
					CHANNELS 3 Zrotation Yrotation Xrotation
					JOINT LeftArm
					{
						OFFSET 3.362410 1.200890 -0.311210
						CHANNELS 3 Zrotation Yrotation Xrotation
						JOINT LeftForeArm
						{
							OFFSET 4.983000 -0.000000 -0.000000
							CHANNELS 3 Zrotation Yrotation Xrotation
							JOINT LeftHand
							{
								OFFSET 3.483560 -0.000000 -0.000000
								CHANNELS 3 Zrotation Yrotation Xrotation
								JOINT LeftFingerBase
								{
									OFFSET 0.000000 0.000000 0.000000
									CHANNELS 3 Zrotation Yrotation Xrotation
									JOINT LeftHandIndex1
									{
										OFFSET 0.715260 -0.000000 -0.000000
										CHANNELS 3 Zrotation Yrotation Xrotation
										End Site
										{
											OFFSET 0.000000 0.000000 0.000000
										}
									}
								}
								JOINT LThumb
								{
									OFFSET 0.000000 0.000000 0.000000
									CHANNELS 3 Zrotation Yrotation Xrotation
									End Site
									{
										OFFSET 0.000000 0.000000 0.000000
									}
								}
							}
						}
					}
				}
				JOINT RightShoulder
				{
					OFFSET 0.000000 0.000000 0.000000
					CHANNELS 3 Zrotation Yrotation Xrotation
					JOINT RightArm
					{
						OFFSET -3.136600 1.374050 -0.404650
						CHANNELS 3 Zrotation Yrotation Xrotation
						JOINT RightForeArm
						{
							OFFSET -5.241900 -0.000000 -0.000000
							CHANNELS 3 Zrotation Yrotation Xrotation
							JOINT RightHand
							{
								OFFSET -3.444170 -0.000000 -0.000000
								CHANNELS 3 Zrotation Yrotation Xrotation
								JOINT RightFingerBase
								{
									OFFSET 0.000000 0.000000 0.000000
									CHANNELS 3 Zrotation Yrotation Xrotation
									JOINT RightHandIndex1
									{
										OFFSET -0.622530 -0.000000 -0.000000
										CHANNELS 3 Zrotation Yrotation Xrotation
										End Site
										{
											OFFSET 0.000000 0.000000 0.000000
										}
									}
								}
								JOINT RThumb
								{
									OFFSET 0.000000 0.000000 0.000000
									CHANNELS 3 Zrotation Yrotation Xrotation
									End Site
									{
										OFFSET 0.000000 0.000000 0.000000
									}
								}
							}
						}
					}
				}
			}
		}
	}
}
MOTION
Frames: 10
Frame Time: 0.008333
-0.793862 17.300501 0.921197 5.794256 -84.887806 3.862252 -9.606778 1.695067 4.299207 -12.095556 -10.066671 -13.419295 -1.850414 -0.552632 10.479470 1.620283 9.243168 -6.448170 0.327600 -0.000000 -35.031499 10.552970 -0.290759 -0.382010 6.291234 -6.712751 -36.091034 -0.957513 -3.547744 55.883077 -1.501528 -6.105839 14.124180 -2.059200 0.000000 -79.693800 -1.459560 -2.179921 -4.444704 -1.023570 -2.268608 -3.780560 -6.727067 -2.384270 0.193175 10.999911 -9.233192 -6.921413 -3.540831 -0.290037 0.244381 0.000000 0.000000 0.000000 -1.578290 2.294408 1.309796 -71.951291 1.490205 12.974770 -3.231167 -20.355589 0.003468 2.622016 -2.431093 -0.057051 -0.074565 0.012883 -0.000000 0.000000 0.000000 0.000000 0.000000 0.000000 0.000000 16.638102 -6.720411 0.894981 68.444272 -1.924412 4.264355 3.494194 24.860595 0.024419 -0.162213 13.612399 -0.030093 0.098077 -0.084855 0.000000 0.000000 0.000000 0.000000 0.000000 0.000000 0.000000 
-0.758259 17.296168 0.954319 3.669086 -84.620659 5.824018 -9.685808 1.611496 4.113490 -12.023479 -9.638102 -13.443430 -1.858781 -0.530773 10.794675 1.540902 8.765570 -6.492910 0.290299 0.000000 -35.308100 10.578773 -0.002132 -0.502520 6.288115 -6.974954 -39.036931 -1.251849 -3.784742 60.238954 -1.581347 -5.293728 18.410229 -1.914199 0.000000 -79.495300 -1.265443 -2.233606 -4.081592 -0.988366 -2.326144 -3.720141 -6.742898 -2.437482 0.166808 11.032248 -9.204637 -6.952745 -3.546108 -0.289390 0.231943 0.000000 0.000000 0.000000 -1.603591 2.188475 1.341289 -71.989873 1.099313 13.282826 -3.217111 -20.447930 0.003331 2.670746 -2.418636 -0.057844 -0.074732 0.015741 -0.000000 0.000000 0.000000 0.000000 0.000000 0.000000 0.000000 16.689318 -6.741622 0.941300 68.308351 -2.176948 3.997962 3.517129 24.555802 0.024002 -0.117890 13.345983 -0.024318 0.098090 -0.082562 0.000000 0.000000 0.000000 0.000000 0.000000 0.000000 0.000000 
-0.719422 17.292093 0.985918 1.397422 -84.389365 7.889383 -9.765226 1.521653 3.896519 -11.919970 -9.174737 -13.398166 -1.860912 -0.505303 11.095891 1.467671 8.322908 -6.542445 0.254800 0.000000 -35.599600 10.576003 0.305898 -0.636593 6.333413 -7.164471 -41.950040 -1.494811 -4.016111 64.508580 -1.662514 -4.212654 22.503384 -1.523700 -0.000001 -78.723100 -1.031058 -2.293049 -3.656927 -0.946610 -2.390407 -3.649956 -6.765641 -2.497059 0.132922 11.061028 -9.147259 -6.986877 -3.555551 -0.288884 0.217784 0.000000 0.000000 0.000000 -1.651801 2.090258 1.381067 -71.983627 0.714967 13.609658 -3.201278 -20.625406 0.003200 2.725506 -2.422714 -0.059236 -0.074870 0.018765 -0.000000 0.000000 0.000000 0.000000 0.000000 0.000000 0.000000 16.749911 -6.733993 0.993080 68.202253 -2.373451 3.669405 3.540157 24.179751 0.023528 -0.098947 13.068997 -0.021643 0.098116 -0.080542 0.000000 0.000000 0.000000 0.000000 0.000000 0.000000 0.000000 
-0.677724 17.288659 1.015978 -1.072831 -84.189575 10.109691 -9.843425 1.426894 3.658109 -11.776164 -8.720901 -13.283456 -1.853757 -0.474545 11.391469 1.405922 7.946162 -6.603117 0.221400 0.000000 -35.874300 10.550185 0.623334 -0.793690 6.439592 -7.302415 -44.818893 -1.700647 -4.255317 68.679173 -1.730122 -2.902522 26.239654 -0.890800 -0.000000 -77.743600 -0.755169 -2.357142 -3.173277 -0.898484 -2.460142 -3.571906 -6.796466 -2.561954 0.086147 11.085311 -9.044955 -7.014254 -3.570571 -0.288747 0.204518 0.000000 0.000000 0.000000 -1.721842 1.981053 1.430353 -71.931738 0.355722 13.947092 -3.183380 -20.882973 0.003083 2.790844 -2.449978 -0.061326 -0.074930 0.021903 -0.000000 0.000000 0.000000 0.000000 0.000000 0.000000 0.000000 16.819213 -6.681537 1.050386 68.130215 -2.538981 3.255690 3.563283 23.742111 0.023030 -0.099872 12.805798 -0.021270 0.098078 -0.078842 0.000000 0.000000 0.000000 0.000000 0.000000 0.000000 0.000000 
-0.633245 17.286163 1.044810 -3.848320 -84.015214 12.583787 -9.922153 1.327911 3.404208 -11.577240 -8.306882 -13.092699 -1.834393 -0.436305 11.689763 1.358904 7.654983 -6.681887 0.189400 -0.000000 -36.115900 10.505877 0.942617 -0.984332 6.625625 -7.407235 -47.626536 -1.892203 -4.511210 72.743729 -1.774170 -1.446016 29.465080 -0.062500 -0.000000 -76.713100 -0.428250 -2.423223 -2.628006 -0.842550 -2.532831 -3.486820 -6.834861 -2.629726 0.021632 11.101065 -8.895072 -7.026614 -3.591178 -0.289081 0.194475 0.000000 0.000000 0.000000 -1.813807 1.831561 1.489051 -71.841044 0.044420 14.262533 -3.163030 -21.213042 0.002980 2.866055 -2.505880 -0.064517 -0.074818 0.025106 0.000000 0.000000 0.000000 0.000000 0.000000 0.000000 0.000000 16.889032 -6.582547 1.114758 68.095436 -2.682127 2.750364 3.587026 23.244323 0.022543 -0.117279 12.571134 -0.022896 0.097965 -0.077507 0.000000 0.000000 0.000000 0.000000 0.000000 0.000000 0.000000 
-0.586967 17.284759 1.072632 -6.925643 -83.853715 15.321743 -10.001511 1.225934 3.149814 -11.316328 -7.982111 -12.841863 -1.800595 -0.390370 11.996604 1.331140 7.477372 -6.783210 0.159200 0.000000 -36.306700 10.445821 1.261549 -1.209226 6.900960 -7.490326 -50.385792 -2.094421 -4.786039 76.696978 -1.791990 0.042173 32.078402 0.873000 0.000000 -75.839900 -0.050997 -2.490863 -2.038928 -0.778493 -2.608025 -3.395578 -6.877371 -2.699873 -0.050028 11.107475 -8.723386 -7.031403 -3.614832 -0.289634 0.185831 0.000000 0.000000 0.000000 -1.922991 1.670274 1.552863 -71.722214 -0.257724 14.585360 -3.141252 -21.566407 0.002903 2.954012 -2.596304 -0.068907 -0.074662 0.028387 0.000000 0.000000 0.000000 0.000000 0.000000 0.000000 0.000000 16.953958 -6.465034 1.181639 68.090840 -2.786348 2.206125 3.610473 22.689479 0.022075 -0.163249 12.364006 -0.027523 0.097900 -0.076443 0.000000 0.000000 0.000000 0.000000 0.000000 0.000000 0.000000 
-0.539571 17.284642 1.099804 -10.274860 -83.691911 18.301670 -10.084264 1.121760 2.902959 -10.992065 -7.768763 -12.541958 -1.751784 -0.336079 12.320525 1.323735 7.422005 -6.906963 0.130500 0.000000 -36.437900 10.369309 1.580245 -1.466155 7.266174 -7.556391 -53.101893 -2.326525 -5.075785 80.522873 -1.785645 1.455806 34.044074 1.817900 0.000000 -75.252600 0.375137 -2.558361 -1.418807 -0.706831 -2.683958 -3.301514 -6.923333 -2.770910 -0.132041 11.103382 -8.524089 -7.020375 -3.641764 -0.290552 0.181047 0.000000 0.000000 0.000000 -2.045669 1.474687 1.621170 -71.584646 -0.532807 14.895648 -3.117929 -21.928753 0.002845 3.054572 -2.719222 -0.074598 -0.074405 0.031677 0.000000 0.000000 0.000000 0.000000 0.000000 0.000000 0.000000 17.010518 -6.323807 1.251290 68.115733 -2.875887 1.609821 3.634382 22.088900 0.021643 -0.223651 12.191742 -0.033649 0.097815 -0.075618 0.000000 0.000000 0.000000 0.000000 0.000000 0.000000 0.000000 
-0.491669 17.285817 1.126578 -13.808574 -83.515512 21.446783 -10.173399 1.015415 2.671060 -10.607997 -7.681659 -12.210653 -1.688488 -0.273635 12.668631 1.336577 7.489821 -7.051141 0.102900 -0.000001 -36.508500 10.272726 1.900123 -1.747802 7.713540 -7.603333 -55.788949 -2.600033 -5.373044 84.201132 -1.760117 2.701044 35.365882 2.678000 -0.000001 -74.984000 0.844831 -2.624765 -0.784901 -0.628320 -2.759615 -3.207393 -6.970908 -2.842031 -0.222125 11.088649 -8.304649 -6.992079 -3.671064 -0.291816 0.180773 0.000000 0.000000 0.000000 -2.177750 1.241968 1.691755 -71.438879 -0.784682 15.192875 -3.093464 -22.274958 0.002798 3.165827 -2.869281 -0.081590 -0.074054 0.034926 0.000000 0.000000 0.000000 0.000000 0.000000 0.000000 0.000000 17.055995 -6.167156 1.322168 68.165735 -2.960446 0.973656 3.659049 21.452591 0.021256 -0.290595 12.052614 -0.040374 0.097701 -0.074957 0.000000 0.000000 0.000000 0.000000 0.000000 0.000000 0.000000 
-0.443936 17.288184 1.153290 -17.423848 -83.311917 24.666397 -10.272382 0.906546 2.457770 -10.170368 -7.716722 -11.867501 -1.612370 -0.203790 13.047149 1.367280 7.667196 -7.211532 0.075700 0.000000 -36.526500 10.150791 2.222006 -2.043235 8.228599 -7.622399 -58.463151 -2.917772 -5.668933 87.703790 -1.720931 3.715034 36.086048 3.383100 0.000000 -74.994900 1.353457 -2.689408 -0.154066 -0.543325 -2.834432 -3.115303 -7.018137 -2.912813 -0.315547 11.063540 -8.075559 -6.948692 -3.701446 -0.293334 0.184637 0.000000 0.000000 0.000000 -2.316428 0.981708 1.762328 -71.293990 -1.030241 15.490137 -3.068627 -22.576980 0.002754 3.284123 -3.037608 -0.089683 -0.073661 0.038109 0.000000 0.000000 0.000000 0.000000 0.000000 0.000000 0.000000 17.088112 -6.006041 1.392051 68.235431 -3.044167 0.313080 3.684942 20.789449 0.020914 -0.355475 11.940911 -0.046798 0.097560 -0.074371 -0.000000 0.000000 0.000000 0.000000 0.000000 0.000000 0.000000 
-0.397325 17.291562 1.179838 -20.941118 -83.070414 27.799192 -10.380274 0.794835 2.267902 -9.694923 -7.872462 -11.532971 -1.525988 -0.129114 13.454121 1.413720 7.942642 -7.379615 0.049400 0.000000 -36.502000 10.000188 2.545904 -2.336470 8.782501 -7.602402 -61.150863 -3.275559 -5.956298 91.001069 -1.672643 4.476748 36.278179 3.900600 0.000001 -75.173600 1.886940 -2.752513 0.450559 -0.454029 -2.908501 -3.029860 -7.064336 -2.983703 -0.413841 11.030501 -7.839142 -6.885970 -3.732813 -0.295201 0.194148 0.000000 0.000000 0.000000 -2.454408 0.672164 1.831576 -71.158708 -1.243815 15.762524 -3.043645 -22.836070 0.002705 3.399636 -3.210308 -0.098077 -0.073151 0.041119 0.000000 0.000000 0.000000 0.000000 0.000000 0.000000 0.000000 17.109425 -5.843385 1.461188 68.321026 -3.149677 -0.365041 3.712123 20.117862 0.020607 -0.407521 11.845220 -0.051921 0.097364 -0.073770 -0.000000 0.000000 0.000000 0.000000 0.000000 0.000000 0.000000 
